<?xml version="1.0" encoding="UTF-8"?>
<svg width="1846px" height="649px" viewBox="0 0 1846 649" version="1.1" xmlns="http://www.w3.org/2000/svg" xmlns:xlink="http://www.w3.org/1999/xlink">
    <!-- Generator: Sketch 50.2 (55047) - http://www.bohemiancoding.com/sketch -->
    <title>Slice</title>
    <desc>Created with Sketch.</desc>
    <defs>
        <path d="M666,89 L902,89 C903.104569,89 904,89.8954305 904,91 L904,515 C904,516.104569 903.104569,517 902,517 L666,517 C664.895431,517 664,516.104569 664,515 L664,91 C664,89.8954305 664.895431,89 666,89 Z" id="path-1"></path>
        <mask id="mask-2" maskContentUnits="userSpaceOnUse" maskUnits="objectBoundingBox" x="0" y="0" width="240" height="428" fill="white">
            <use xlink:href="#path-1"></use>
        </mask>
    </defs>
    <g id="Page-1" stroke="none" stroke-width="1" fill="none" fill-rule="evenodd">
        <ellipse id="Oval-3-Copy-6" fill="#F6F6F6" cx="278" cy="527" rx="129" ry="94"></ellipse>
        <ellipse id="Oval-3-Copy-6" fill="#EAEAEA" cx="278.5" cy="526.5" rx="73.5" ry="53.5"></ellipse>
        <path d="M289,236.490999 L290.864381,236.605425 L326.505161,249.747119 L334.829532,308.755942 L324.242924,372.226383 L316.054647,372.226383 L317.744977,315.247495 L311.648547,274.110982 L309.125252,339.517282 L309.125252,504.509285 L324.242924,526.86074 L290.864381,511.609442 L285.816514,355.414773 L281.829532,355.414773 L277.013018,355.414773 L271.965151,511.609442 L238.586608,526.86074 L253.70428,504.509285 L253.70428,339.517282 L251.180985,274.110982 L245.084555,315.247495 L246.774885,372.226383 L238.586608,372.226383 L228,308.755942 L236.324371,249.747119 L271.965151,236.605425 L275,236.419161 L275,231.508529 C267.9893,228.165973 263,219.573118 263,209.5 C263,196.521308 271.282732,186 281.5,186 C291.717268,186 300,196.521308 300,209.5 C300,219.087262 295.48039,227.333611 289,230.988644 L289,236.490999 Z" id="Combined-Shape" fill="#1DC6DE"></path>
        <rect id="Rectangle-2" stroke="#000000" stroke-width="3" x="57.5" y="88.5" width="173" height="90"></rect>
        <rect id="Rectangle-2-Copy" stroke="#000000" stroke-width="3" x="331.5" y="90.5" width="283" height="90"></rect>
        <rect id="Rectangle-2-Copy-5" stroke="#000000" stroke-width="3" x="331.5" y="420.5" width="283" height="90"></rect>
        <rect id="Rectangle-2-Copy-3" stroke="#000000" stroke-width="3" x="1001.5" y="116.5" width="229" height="55"></rect>
        <rect id="Rectangle-2-Copy-4" stroke="#000000" stroke-width="3" x="1001.5" y="453.5" width="229" height="55"></rect>
        <use id="Rectangle-2-Copy-2" stroke="#000000" mask="url(#mask-2)" stroke-width="6" stroke-dasharray="3" xlink:href="#path-1"></use>
        <text id="デザインでは、-同じ手法を適用しても-同" font-family="HiraginoSans-W6, Hiragino Sans" font-size="22" font-weight="500" letter-spacing="4" fill="#4A4A4A">
            <tspan x="385.44" y="120">デザインでは、</tspan>
            <tspan x="346.55" y="142">同じ手法を適用しても</tspan>
            <tspan x="346" y="164">同じ結果は得られない</tspan>
        </text>
        <text id="ビジネスに-どうつながるのか?" font-family="HiraginoSans-W6, Hiragino Sans" font-size="22" font-weight="500" letter-spacing="4" fill="#4A4A4A">
            <tspan x="411" y="464">ビジネスに</tspan>
            <tspan x="363.213" y="486">どうつながるのか?</tspan>
        </text>
        <text id="やってみて-わかる!" font-family="HiraginoSans-W6, Hiragino Sans" font-size="24" font-weight="500" letter-spacing="4.36363602" fill="#454545">
            <tspan x="76.43091" y="130">やってみて</tspan>
            <tspan x="97.704728" y="154">わかる!</tspan>
        </text>
        <text id="基本思想" font-family="HiraginoSans-W6, Hiragino Sans" font-size="20" font-weight="500" letter-spacing="3.63636327" fill="#454545">
            <tspan x="417.227273" y="70">基本思想</tspan>
        </text>
        <text id="増やしていきたい" font-family="HiraginoSans-W6, Hiragino Sans" font-size="20" font-weight="500" letter-spacing="3.63636327" fill="#454545">
            <tspan x="691.454547" y="68">増やしていきたい</tspan>
        </text>
        <text id="そのためにやりたい" font-family="HiraginoSans-W6, Hiragino Sans" font-size="20" font-weight="500" letter-spacing="3.63636327" fill="#454545">
            <tspan x="1009.13637" y="69">そのためにやりたい</tspan>
        </text>
        <text id="個別具体的な経験" font-family="HiraginoSans-W6, Hiragino Sans" font-size="20" font-weight="500" letter-spacing="3.63636327" fill="#454545">
            <tspan x="690.954547" y="121">個別具体的な経験</tspan>
        </text>
        <text id="働き方" font-family="HiraginoSans-W6, Hiragino Sans" font-size="20" font-weight="500" letter-spacing="3.63636327" fill="#454545">
            <tspan x="106.045455" y="68">働き方</tspan>
        </text>
        <path d="M451,180 C479.37894,252 542.37894,288 640,288" id="Path-3" stroke="#000000" stroke-width="5"></path>
        <polygon id="Triangle" fill="#000000" transform="translate(645.000000, 288.000000) rotate(90.000000) translate(-645.000000, -288.000000) " points="645 278 655 298 635 298"></polygon>
        <g id="Group-2" transform="translate(826.000000, 134.000000)">
            <path d="M0,10 C23.2737335,86.6666667 74.9404002,125 155,125" id="Path-3-Copy" stroke="#000000" stroke-width="5" transform="translate(77.500000, 67.500000) scale(1, -1) translate(-77.500000, -67.500000) "></path>
            <polygon id="Triangle-Copy-2" fill="#000000" transform="translate(165.000000, 10.000000) rotate(90.000000) translate(-165.000000, -10.000000) " points="165 0 175 20 155 20"></polygon>
        </g>
        <g id="Group-2-Copy" transform="translate(913.500000, 427.500000) scale(1, -1) translate(-913.500000, -427.500000) translate(826.000000, 365.000000)">
            <path d="M0,10 C23.2737335,86.6666667 74.9404002,125 155,125" id="Path-3-Copy" stroke="#000000" stroke-width="5" transform="translate(77.500000, 67.500000) scale(1, -1) translate(-77.500000, -67.500000) "></path>
            <polygon id="Triangle-Copy-2" fill="#000000" transform="translate(165.000000, 10.000000) rotate(90.000000) translate(-165.000000, -10.000000) " points="165 0 175 20 155 20"></polygon>
        </g>
        <g id="Group-2-Copy-2" transform="translate(795.500000, 561.500000) scale(-1, -1) translate(-795.500000, -561.500000) translate(461.000000, 509.000000)" stroke="#000000" stroke-width="5">
            <path d="M0,0 C52.3721454,70 168.636009,105 348.791591,105 C528.947173,105 635.641142,74.5781598 668.873499,13.7344794" id="Path-3-Copy" transform="translate(334.436750, 52.500000) scale(1, -1) translate(-334.436750, -52.500000) "></path>
        </g>
        <polygon id="Triangle-Copy" fill="#000000" points="462 509 470 525 454 525"></polygon>
        <text id="だとしたら-何が必要なのか?" font-family="HiraginoSans-W4, Hiragino Sans" font-size="24" font-weight="normal" letter-spacing="4.363636" fill="#454545">
            <tspan x="468.59091" y="318">だとしたら</tspan>
            <tspan x="431.037456" y="342">何が必要なのか?</tspan>
        </text>
        <text id="還元" font-family="HiraginoSans-W4, Hiragino Sans" font-size="24" font-weight="normal" letter-spacing="4.363636" fill="#454545">
            <tspan x="755.136364" y="598">還元</tspan>
        </text>
        <circle id="Oval-2-Copy-2" stroke="#E3E3E3" stroke-width="2" cx="784" cy="263" r="82"></circle>
        <circle id="Oval-2-Copy-3" stroke="#E3E3E3" stroke-width="2" cx="784" cy="286" r="82"></circle>
        <circle id="Oval-2-Copy-5" stroke="#E3E3E3" stroke-width="2" cx="784" cy="324" r="82"></circle>
        <circle id="Oval-2" fill="#EAEAEA" cx="784" cy="229" r="82"></circle>
        <text id="実践" font-family="HiraginoSans-W4, Hiragino Sans" font-size="26" font-weight="normal" letter-spacing="4.72727203" fill="#000000">
            <tspan x="754.272728" y="240">実践</tspan>
        </text>
        <circle id="Oval-2-Copy" stroke="#C0BABA" stroke-width="3" fill="#FFFFFF" cx="784" cy="399" r="82"></circle>
        <text id="デザイン知" font-family="HiraginoSans-W4, Hiragino Sans" font-size="26" font-weight="normal" letter-spacing="1.63" fill="#000000">
            <tspan x="717.52" y="410">デザイン</tspan>
            <tspan x="826.48" y="410">知</tspan>
        </text>
        <g id="Group" transform="translate(788.000000, 274.000000)">
            <path d="M8,8 L8,59.52184" id="Path-4-Copy" stroke="#000000" stroke-width="5"></path>
            <polygon id="Triangle-Copy" fill="#000000" points="8 0 16 16 0 16"></polygon>
        </g>
        <g id="Group-Copy" transform="translate(771.000000, 304.000000) scale(1, -1) translate(-771.000000, -304.000000) translate(763.000000, 274.000000)">
            <path d="M8,8 L8,59.52184" id="Path-4-Copy" stroke="#000000" stroke-width="5"></path>
            <polygon id="Triangle-Copy" fill="#000000" points="8 0 16 16 0 16"></polygon>
        </g>
        <g id="Group-Copy-5" transform="translate(1098.000000, 307.500000) scale(1, -1) translate(-1098.000000, -307.500000) translate(1090.000000, 193.000000)">
            <path d="M8,14.4013179 L8,228.52184" id="Path-4-Copy" stroke="#000000" stroke-width="4"></path>
            <polygon id="Triangle-Copy" fill="#000000" points="8 0 16 16 0 16"></polygon>
        </g>
        <g id="Group-Copy-5" transform="translate(1136.000000, 193.000000)">
            <path d="M8,14.4013179 L8,228.52184" id="Path-4-Copy" stroke="#000000" stroke-width="4"></path>
            <polygon id="Triangle-Copy" fill="#000000" points="8 0 16 16 0 16"></polygon>
        </g>
        <g id="Group-Copy-2" transform="translate(281.000000, 131.000000) scale(1, -1) rotate(-90.000000) translate(-281.000000, -131.000000) translate(273.000000, 101.000000)">
            <path d="M8,8 L8,59.52184" id="Path-4-Copy" stroke="#000000" stroke-width="5"></path>
            <polygon id="Triangle-Copy" fill="#000000" points="8 0 16 16 0 16"></polygon>
        </g>
        <g id="Group-Copy-3" transform="translate(1303.000000, 483.000000) rotate(90.000000) translate(-1303.000000, -483.000000) translate(1295.000000, 415.000000)">
            <path d="M8,8 L8,135.50098" id="Path-4-Copy" stroke="#000000" stroke-width="5"></path>
            <polygon id="Triangle-Copy" fill="#000000" points="8 0 16 16 0 16"></polygon>
        </g>
        <g id="Group-Copy-4" transform="translate(1311.000000, 144.000000) rotate(90.000000) translate(-1311.000000, -144.000000) translate(1303.000000, 64.000000)">
            <path d="M8,8 L8,159.520626" id="Path-4-Copy" stroke="#000000" stroke-width="5"></path>
            <polygon id="Triangle-Copy" fill="#000000" points="8 0 16 16 0 16"></polygon>
        </g>
        <text id="だから" font-family="HiraginoSans-W4, Hiragino Sans" font-size="20" font-weight="normal" letter-spacing="3.636363" fill="#454545">
            <tspan x="248.545456" y="113">だから</tspan>
        </text>
        <ellipse id="Oval-3" fill="#EAEAEA" cx="1429" cy="210.5" rx="61" ry="44.5"></ellipse>
        <ellipse id="Oval-3-Copy-4" fill="#EAEAEA" cx="1429" cy="480.5" rx="61" ry="44.5"></ellipse>
        <text id="サービスのデザイン" font-family="HiraginoSans-W6, Hiragino Sans" font-size="20" font-weight="500" letter-spacing="3.636363" fill="#454545">
            <tspan x="1012.03637" y="152">サービスのデザイン</tspan>
        </text>
        <text id="経験の言語化" font-family="HiraginoSans-W6, Hiragino Sans" font-size="20" font-weight="500" letter-spacing="3.636363" fill="#454545">
            <tspan x="1047.09091" y="489">経験の言語化</tspan>
        </text>
        <text id="=デザイナーの価値" font-family="HiraginoSans-W6, Hiragino Sans" font-size="24" font-weight="500" letter-spacing="0.360000014" fill="#FF9300">
            <tspan x="680.3" y="153">=デザイナーの価</tspan>
            <tspan x="865.7" y="153">値</tspan>
        </text>
        <g id="Group-4" transform="translate(1381.000000, 32.000000)">
            <path d="M50.9791546,53.158942 L51.8342989,53.2114263 L68.1818218,59.2391885 L72,86.3050407 L67.1441912,115.417324 L63.3884358,115.417324 L64.1637473,89.2825517 L61.3674695,70.4142755 L60.210098,100.414488 L60.210098,176.09214 L67.1441912,186.344186 L51.8342989,179.348802 L49.5189704,107.706264 L47.6902427,107.706264 L45.4810296,107.706264 L43.1657011,179.348802 L27.8558088,186.344186 L34.789902,176.09214 L34.789902,100.414488 L33.6325305,70.4142755 L30.8362527,89.2825517 L31.6115642,115.417324 L27.8558088,115.417324 L23,86.3050407 L26.8181782,59.2391885 L43.1657011,53.2114263 L44.5577093,53.125992 L44.5577093,50.8736092 C41.342079,49.3404637 39.0536133,45.3991388 39.0536133,40.7788547 C39.0536133,34.8258576 42.8526927,30 47.5390946,30 C52.2254966,30 56.024576,34.8258576 56.024576,40.7788547 C56.024576,45.1762887 53.9515454,48.9586804 50.9791546,50.6351514 L50.9791546,53.158942 Z" id="Combined-Shape" fill="#155FB2"></path>
            <text id="ユーザー" font-family="HiraginoSans-W4, Hiragino Sans" font-size="20" font-weight="normal" letter-spacing="3.636363" fill="#454545">
                <tspan x="0.327274" y="18">ユーザー</tspan>
            </text>
        </g>
        <text id="チームや-メンバー" font-family="HiraginoSans-W4, Hiragino Sans" font-size="20" font-weight="normal" letter-spacing="3.636363" fill="#454545">
            <tspan x="1387.22727" y="555">チームや</tspan>
            <tspan x="1387.72727" y="575">メンバー</tspan>
        </text>
        <text id="自分" font-family="HiraginoSans-W4, Hiragino Sans" font-size="20" font-weight="normal" letter-spacing="3.636363" fill="#454545">
            <tspan x="255.363637" y="555">自分</tspan>
        </text>
        <text id="会社" font-family="HiraginoSans-W4, Hiragino Sans" font-size="20" font-weight="normal" letter-spacing="3.636363" fill="#454545">
            <tspan x="255.363637" y="612">会社</tspan>
        </text>
        <g id="Group-3" transform="translate(1383.000000, 351.000000)">
            <path d="M45.0607524,19.0878758 L45.7655725,19.131134 L59.2393956,24.0992873 L62.3863835,46.4072851 L58.3841681,70.4019758 L55.2886298,70.4019758 L55.9276507,48.8613851 L53.6229253,33.3099271 L52.6690059,58.0364597 L52.6690059,120.410882 L58.3841681,128.86074 L45.7655725,123.095061 L43.8572512,64.0464285 L42.3499921,64.0464285 L40.5291323,64.0464285 L38.620811,123.095061 L26.0022155,128.86074 L31.7173777,120.410882 L31.7173777,58.0364597 L30.7634582,33.3099271 L28.4587328,48.8613851 L29.0977538,70.4019758 L26.0022155,70.4019758 L22,46.4072851 L25.1469879,24.0992873 L38.620811,19.131134 L39.7681207,19.060718 L39.7681207,17.2042773 C37.1177599,15.9406405 35.2315793,12.6921535 35.2315793,8.88406037 C35.2315793,3.97752931 38.3628257,0 42.225414,0 C46.0880023,0 49.2192488,3.97752931 49.2192488,8.88406037 C49.2192488,12.5084778 47.5106323,15.6259702 45.0607524,17.0077375 L45.0607524,19.0878758 Z" id="Combined-Shape-Copy-2" fill-opacity="0.5" fill="#59C25F"></path>
            <path d="M68.0607524,40.0878758 L68.7655725,40.131134 L82.2393956,45.0992873 L85.3863835,67.4072851 L81.3841681,91.4019758 L78.2886298,91.4019758 L78.9276507,69.8613851 L76.6229253,54.3099271 L75.6690059,79.0364597 L75.6690059,141.410882 L81.3841681,149.86074 L68.7655725,144.095061 L66.8572512,85.0464285 L65.3499921,85.0464285 L63.5291323,85.0464285 L61.620811,144.095061 L49.0022155,149.86074 L54.7173777,141.410882 L54.7173777,79.0364597 L53.7634582,54.3099271 L51.4587328,69.8613851 L52.0977538,91.4019758 L49.0022155,91.4019758 L45,67.4072851 L48.1469879,45.0992873 L61.620811,40.131134 L62.7681207,40.060718 L62.7681207,38.2042773 C60.1177599,36.9406405 58.2315793,33.6921535 58.2315793,29.8840604 C58.2315793,24.9775293 61.3628257,21 65.225414,21 C69.0880023,21 72.2192488,24.9775293 72.2192488,29.8840604 C72.2192488,33.5084778 70.5106323,36.6259702 68.0607524,38.0077375 L68.0607524,40.0878758 Z" id="Combined-Shape-Copy-3" fill="#00A8A8"></path>
            <path d="M23.0607524,40.0878758 L23.7655725,40.131134 L37.2393956,45.0992873 L40.3863835,67.4072851 L36.3841681,91.4019758 L33.2886298,91.4019758 L33.9276507,69.8613851 L31.6229253,54.3099271 L30.6690059,79.0364597 L30.6690059,141.410882 L36.3841681,149.86074 L23.7655725,144.095061 L21.8572512,85.0464285 L20.3499921,85.0464285 L18.5291323,85.0464285 L16.620811,144.095061 L4.00221547,149.86074 L9.71737766,141.410882 L9.71737766,79.0364597 L8.76345822,54.3099271 L6.45873278,69.8613851 L7.09775376,91.4019758 L4.00221547,91.4019758 L0,67.4072851 L3.14698794,45.0992873 L16.620811,40.131134 L17.7681207,40.060718 L17.7681207,38.2042773 C15.1177599,36.9406405 13.2315793,33.6921535 13.2315793,29.8840604 C13.2315793,24.9775293 16.3628257,21 20.225414,21 C24.0880023,21 27.2192488,24.9775293 27.2192488,29.8840604 C27.2192488,33.5084778 25.5106323,36.6259702 23.0607524,38.0077375 L23.0607524,40.0878758 Z" id="Combined-Shape-Copy" fill="#00A8A8"></path>
        </g>
        <ellipse id="Oval-3-Copy" stroke="#F8E71C" stroke-width="4" cx="1576" cy="334.5" rx="120" ry="50.5"></ellipse>
        <ellipse id="Oval-3-Copy-5" stroke="#F8E71C" stroke-width="4" cx="1616" cy="213.5" rx="120" ry="50.5"></ellipse>
        <ellipse id="Oval-3-Copy-3" stroke="#F8E71C" stroke-width="4" cx="1577" cy="101.5" rx="120" ry="50.5"></ellipse>
        <ellipse id="Oval-3-Copy-2" stroke="#F8E71C" stroke-width="4" cx="1314" cy="335.5" rx="120" ry="50.5"></ellipse>
        <text id="知識を言語化-するには" font-family="HiraginoSans-W4, Hiragino Sans" font-size="20" font-weight="normal" letter-spacing="3.636363" fill="#454545">
            <tspan x="1244.09091" y="335">知識を言語化</tspan>
            <tspan x="1267.72727" y="355">するには</tspan>
        </text>
        <text id="他者を巻き込んで-ものづくりする方法" font-family="HiraginoSans-W4, Hiragino Sans" font-size="20" font-weight="normal" letter-spacing="2" fill="#454545">
            <tspan x="1489.6" y="330">他者を巻き込んで</tspan>
            <tspan x="1479" y="350">ものづくりする方</tspan>
            <tspan x="1655" y="350">法</tspan>
        </text>
        <text id="主観と客観は-一致するか?" font-family="HiraginoSans-W4, Hiragino Sans" font-size="20" font-weight="normal" letter-spacing="2" fill="#454545">
            <tspan x="1550" y="209">主観と客観は</tspan>
            <tspan x="1554.16" y="229">一致するか?</tspan>
        </text>
        <text id="ユーザー-視点とは?" font-family="HiraginoSans-W4, Hiragino Sans" font-size="20" font-weight="normal" letter-spacing="2" fill="#454545">
            <tspan x="1534.6" y="97">ユーザー</tspan>
            <tspan x="1527.16" y="117" font-family="HiraginoSans-W7, Hiragino Sans" font-weight="bold">視点</tspan>
            <tspan x="1571.16" y="117">とは?</tspan>
        </text>
        <text id="経験の中で-培ったスキル-を言語化" font-family="HiraginoSans-W4, Hiragino Sans" font-size="20" font-weight="normal" letter-spacing="3.636363" fill="#454545">
            <tspan x="954.409093" y="275">経験の中で</tspan>
            <tspan x="943.390911" y="295">培ったスキル</tspan>
            <tspan x="966.227274" y="315">を言語化</tspan>
        </text>
        <text id="サービスに反映" font-family="HiraginoSans-W4, Hiragino Sans" font-size="20" font-weight="normal" letter-spacing="3.636363" fill="#454545">
            <tspan x="1156.27273" y="275">サービスに反映</tspan>
        </text>
        <text id="共有-copy" font-family="HiraginoSans-W4, Hiragino Sans" font-size="20" font-weight="normal" letter-spacing="3.636363" fill="#454545">
            <tspan x="1283.36364" y="463">共有</tspan>
        </text>
        <text id="デザインの場自体のデザイン-Design" font-family="HiraginoSans-W6, Hiragino Sans" font-size="20" font-weight="500" letter-spacing="3.636363" fill="#454545">
            <tspan x="1506.66364" y="453">デザインの場自体のデザイン</tspan>
            <tspan x="1505.35637" y="473">Design by themselves</tspan>
        </text>
    </g>
</svg>